# xmcd
#
# Track frame offsets:
#	150
#	9675
#	20312
#	33212
#	45915
#	61307
#	75785
#	91460
#	100870
#	113810
#	124585
#	136852
#	150395
#	161140
#	173485
#	186230
#	197982
#	211127
#	220927
#	232315
#	244995
#	258722
#	269647
#	281012
#	290482
#
# Disc length: 4026 seconds
#
# Revision: 0
# Processed by: cddbd v1.4PL0 Copyright (c) Steve Scherf et al.
# Submitted via: dBpowerAMP V4.0
#
DISCID=600fb819
DTITLE=Gladys Knight and The Pips - Letter Full Of Tears
DYEAR=1900
DGENRE=Soul
TTITLE0=Every Beat Of My Heart
TTITLE1=Operator
TTITLE2=Come See About Me
TTITLE3=You Broke Your Promise
TTITLE4=Guess Who?
TTITLE5=It Hurts So Bad
TTITLE6=Queen Of Tears
TTITLE7=Room In You Heart
TTITLE8=Letter Full Of tears
TTITLE9=One More Lonely Night
TTITLE10=What Shall I Do?
TTITLE11=A Love Like Mine
TTITLE12=What Will Become Of Me?
TTITLE13=I Can't Stand By
TTITLE14=I'll Trust In You
TTITLE15=How Do You Say Goodbye?
TTITLE16=Love Call
TTITLE17=Stop Running Around
TTITLE18=I Want That Kind Of Love
TTITLE19=Darling
TTITLE20=Before Now And After Then
TTITLE21=Morning, Noon, And Night
TTITLE22=Linda
TTITLE23=Every Beat Of My Heart
TTITLE24=Goodnight My Love
EXTD=
EXTT0=
EXTT1=
EXTT2=
EXTT3=
EXTT4=
EXTT5=
EXTT6=
EXTT7=
EXTT8=
EXTT9=
EXTT10=
EXTT11=
EXTT12=
EXTT13=
EXTT14=
EXTT15=
EXTT16=
EXTT17=
EXTT18=
EXTT19=
EXTT20=
EXTT21=
EXTT22=
EXTT23=
EXTT24=
PLAYORDER=
